PathFileType	4	(X/Y/Z)	Kaydara	
DataRate	CameraRate	NumFrames	NumMarkers	Units	OrigDataRate	OrigDataStartFrame	OrigNumFrames	
240.00	240.00	4	72	mm	240.00	315	359	
Frame#	Time	Hips			RightUpLeg			RightLeg			RightFoot			RightFoot_End			LeftUpLeg			LeftLeg			LeftFoot			LeftFoot_End			Spine			Spine1			Spine2			Spine3			Neck			Head			Head_End			RightShoulder			RightArm			RightForeArm			RightHand			RightHandThumb1			RightHandThumb2			RightHandThumb3			RightHandThumb3_End			RightInHandIndex			RightHandIndex1			RightHandIndex2			RightHandIndex3			RightHandIndex3_End			RightInHandMiddle			RightHandMiddle1			RightHandMiddle2			RightHandMiddle3			RightHandMiddle3_End			RightInHandRing			RightHandRing1			RightHandRing2			RightHandRing3			RightHandRing3_End			RightInHandPinky			RightHandPinky1			RightHandPinky2			RightHandPinky3			RightHandPinky3_End			LeftShoulder			LeftArm			LeftForeArm			LeftHand			LeftHandThumb1			LeftHandThumb2			LeftHandThumb3			LeftHandThumb3_End			LeftInHandIndex			LeftHandIndex1			LeftHandIndex2			LeftHandIndex3			LeftHandIndex3_End			LeftInHandMiddle			LeftHandMiddle1			LeftHandMiddle2			LeftHandMiddle3			LeftHandMiddle3_End			LeftInHandRing			LeftHandRing1			LeftHandRing2			LeftHandRing3			LeftHandRing3_End			LeftInHandPinky			LeftHandPinky1			LeftHandPinky2			LeftHandPinky3			LeftHandPinky3_End			
		X1	Y1	Z1	X2	Y2	Z2	X3	Y3	Z3	X4	Y4	Z4	X5	Y5	Z5	X6	Y6	Z6	X7	Y7	Z7	X8	Y8	Z8	X9	Y9	Z9	X10	Y10	Z10	X11	Y11	Z11	X12	Y12	Z12	X13	Y13	Z13	X14	Y14	Z14	X15	Y15	Z15	X16	Y16	Z16	X17	Y17	Z17	X18	Y18	Z18	X19	Y19	Z19	X20	Y20	Z20	X21	Y21	Z21	X22	Y22	Z22	X23	Y23	Z23	X24	Y24	Z24	X25	Y25	Z25	X26	Y26	Z26	X27	Y27	Z27	X28	Y28	Z28	X29	Y29	Z29	X30	Y30	Z30	X31	Y31	Z31	X32	Y32	Z32	X33	Y33	Z33	X34	Y34	Z34	X35	Y35	Z35	X36	Y36	Z36	X37	Y37	Z37	X38	Y38	Z38	X39	Y39	Z39	X40	Y40	Z40	X41	Y41	Z41	X42	Y42	Z42	X43	Y43	Z43	X44	Y44	Z44	X45	Y45	Z45	X46	Y46	Z46	X47	Y47	Z47	X48	Y48	Z48	X49	Y49	Z49	X50	Y50	Z50	X51	Y51	Z51	X52	Y52	Z52	X53	Y53	Z53	X54	Y54	Z54	X55	Y55	Z55	X56	Y56	Z56	X57	Y57	Z57	X58	Y58	Z58	X59	Y59	Z59	X60	Y60	Z60	X61	Y61	Z61	X62	Y62	Z62	X63	Y63	Z63	X64	Y64	Z64	X65	Y65	Z65	X66	Y66	Z66	X67	Y67	Z67	X68	Y68	Z68	X69	Y69	Z69	X70	Y70	Z70	X71	Y71	Z71	X72	Y72	Z72	

315	1.308	5198.941	914.58397	126.699	5242.555136129391	884.5407724336799	50.62592228470349	5143.915307956166	491.00544464792836	-53.641185723869995	5143.1757859723775	99.9925783409947	-132.28255805662417	4992.187083919814	22.833293687342685	-44.038287637328814	5168.32684067426	918.2664544821029	215.1577939773766	5077.4585422894625	515.2901850205884	284.07822226866534	4994.529321055226	89.58056847985226	356.63378086420494	4874.229165125996	6.126490047716294	233.74912535472453	5138.650694776432	1033.5139923224033	74.88656577896279	5078.676177967342	1088.7733868250434	22.11889129368313	5012.980806774541	1139.5337678057326	-35.707846902256335	4945.846369069919	1177.7659682781173	-94.6483891903725	4873.02624533199	1218.968412023961	-156.1166048027196	4805.473012143021	1257.3437719552576	-209.75345284264748	4672.725914983148	1341.3605618222743	-234.64237806757353	4907.813925222199	1189.9298572792138	-158.08852122442752	4910.460212571846	1105.9994637435946	-233.54828090406542	4889.475932068154	952.0290715861092	-73.2977542568685	4803.679555840026	836.8246617001765	-24.78882603555178	4805.014383056098	854.9596971451034	-10.291768237496111	4811.350543486753	855.7247243394472	0.03143276423676511	4815.210833727341	851.944812224625	6.27600848172928	4817.956585543182	845.1042818826642	10.673845164397681	4802.470648212495	841.7267035424209	-11.993970611145848	4801.549042416032	830.7840837704097	2.5260550747027892	4804.575548903978	820.1621859732661	10.74233513944586	4808.991761091064	816.2702213574752	14.456618652111139	4814.3567485874055	814.8779486771375	16.59078449566496	4801.175131454418	830.2348640154488	-15.157994475759569	4799.574433028371	813.3466788741204	-2.706480281767309	4802.713583417335	800.2714879429684	5.792172707613577	4807.963192103141	794.8635797760378	10.049241034397806	4813.795352318363	792.9938577182406	12.275473076567835	4800.242330258558	822.3952808545437	-17.748016060621126	4797.877982998052	800.4552426610649	-8.790816313357926	4800.450074476227	787.5680748796585	-1.8804212750387919	4805.426648319405	781.5600333841963	1.9618884544674664	4810.869081621223	779.4268664137534	3.930014010553716	4799.517195936552	813.6754721217384	-21.278979591521562	4796.763594566119	788.1734837285576	-15.182313865529302	4798.57797848163	775.6238041251374	-10.463376362550022	4802.089275889831	770.1627318186589	-8.054853140943571	4806.842111274071	767.6522435944331	-6.538208341630355	4886.945073112327	1221.1986471686707	-112.38800697933604	4868.6808457979305	1254.8093052545944	-8.477433831576912	4904.529168304567	1045.000149338326	23.327695392994833	4827.449466028772	861.0012403784482	-16.803160731125136	4814.640237164306	873.6199528887797	-14.060013198367045	4802.168177996144	865.8036455693597	-21.67154391410044	4793.472616538636	856.4399469999266	-27.427430774742874	4786.214931713717	845.280023573005	-32.615290834496236	4813.156887406593	861.6412913254659	-14.49206223319018	4792.455351657477	844.105341003146	-16.75502262911776	4779.503114113153	827.002571270336	-23.394157651567483	4773.863340957551	818.2347139758182	-29.75511674720866	4770.822695958292	812.2355107311655	-36.526587466959796	4813.919277915305	851.3558570270441	-15.892130753519936	4794.139586059619	828.6898213894851	-18.855206677371637	4780.175680664424	808.7209178503745	-26.283544228698673	4773.45287801989	797.515934381818	-34.04597653746679	4770.165422412751	790.6469672828772	-41.4980550156078	4814.967230286105	844.5573186919161	-16.775535329959677	4798.094935640123	818.4027662642047	-20.057472805156248	4786.128633137592	799.6980365363581	-26.71568160263825	4779.752663675377	788.1996975530978	-34.300695225414515	4776.7131452073645	781.4140498544973	-41.353746998174344	4816.92406607692	837.0671401792366	-18.10624828151321	4802.585015237413	808.5242400032075	-21.77647947170281	4793.395902366816	791.632318848422	-27.38067399028516	4788.935378764327	782.3195812606737	-33.04505415217285	4786.352285203809	775.7757915514726	-39.368785014022336
316	1.313	5198.941	914.58397	126.699	5242.421912738728	884.4476515767228	50.58211206837604	5143.7759643740255	490.9357648512234	-53.772300844584166	5143.212414893997	99.93217269738984	-132.45587233429188	4992.225313310306	22.763292595297003	-44.217344898534904	5168.453506818602	918.3556765677243	215.2005409595898	5077.698803085799	515.3581578738975	284.1481915912621	4994.677758535557	89.62552495309315	356.46916572012964	4874.393051394725	6.155825577457748	233.57997041158094	5138.685938406828	1033.5358921133081	74.89376995536507	5078.727227122429	1088.8198499395176	22.132331036469893	5013.04136628703	1139.6015958161638	-35.68756469033405	4945.899364005374	1177.8400347922977	-94.6160344812895	4873.071246647206	1219.047277590405	-156.07217795735951	4805.512245581624	1257.4279064036375	-209.69849237083505	4672.765036359933	1341.441866129769	-234.61944532596408	4907.826191839164	1189.9379636085168	-158.06153180470662	4910.248220236793	1105.6812087115695	-233.5068804431695	4888.901594193254	952.5907535101336	-71.99059678667727	4801.823000582928	837.7029897841169	-22.28930796798293	4803.48343964892	855.9093138705543	-8.049871135883096	4809.812601808211	856.4640236891307	2.078164844359165	4813.593616489169	852.5243583215628	8.23995165985198	4816.20963094514	845.5392809101886	12.6142170628603	4800.716190163691	842.66062435087	-9.577302617231219	4799.616953901662	831.6436724124358	4.978615895640759	4802.448688350995	820.8343827411145	13.177290704570673	4806.779142012057	816.7680424722404	16.81119562568606	4812.096979331825	815.1924014914337	18.831997111400817	4799.221112531075	831.1287820860995	-12.6001110506061	4797.339236434185	814.1464968185384	-0.03719251698206705	4800.240007364203	800.8616172324876	8.460713061452044	4805.373749900488	795.240832883666	12.62966736875791	4811.148290235215	793.1692577423328	14.73616538501929	4798.1520552516495	823.264109641095	-15.090493123239867	4795.41802408275	801.2216924721336	-5.944656496542709	4797.7563685878085	788.1465719488467	0.9837743543944839	4802.607386297507	781.9304392510276	4.751015004635665	4807.989105828625	779.6061741538373	6.61126302697599	4797.273442436708	814.5074867126274	-18.513854645801324	4794.086766804391	788.8931583841334	-12.17518431591401	4795.675062098763	776.1853171523186	-7.413478674056133	4799.075955014946	770.5687587945118	-5.0460090628909064	4803.76417486217	767.8868571950944	-3.61704049699631	4887.029894534786	1221.3470125052647	-112.3347349577615	4868.895477653052	1255.2642169900712	-8.313097037326452	4904.715733100278	1045.3361521521172	24.58169477377751	4825.366324135694	861.0905315007951	-14.143190085033616	4812.701152216483	874.0650338540675	-11.389830153954616	4800.031972041535	866.5027241496532	-18.722491410505754	4791.126512695455	857.2841075978254	-24.24433776446847	4783.63171787282	846.2179271235688	-29.203010016114078	4810.982207578054	862.0105271395666	-11.691187491778146	4789.821502946357	844.7605821778824	-13.534543459397518	4776.488184647951	827.8273971373459	-19.811991071856028	4770.6724997344745	819.1525195362956	-25.974849062483738	4767.527403067374	813.2218769510176	-32.60040202638538	4811.560131868212	851.6272423722494	-12.994201739971071	4791.232820142355	829.1872490506337	-15.495531309054186	4776.830152559152	809.3895204611196	-22.517663868268215	4769.88411694359	798.2900551165854	-30.03556073710385	4766.477023767467	791.4928688020891	-37.325288436742866	4812.489535049199	844.752422492607	-13.820108763563535	4795.023726337888	818.7346640802974	-16.63938130771166	4782.6524252504505	800.1645909703526	-22.932476977478803	4776.049143077405	788.7603108000657	-30.27574161506236	4772.891455031602	782.0384959381171	-37.173358691777494	4814.322575599416	837.1648732041875	-15.093844343096606	4799.362886994857	808.688000083519	-18.305680287394264	4789.816839685475	791.8806250401858	-23.602260761648456	4785.174730634301	782.6252321414295	-29.082933631551295	4782.47787500489	776.1315063127832	-35.26473053676503
317	1.317	5198.941	914.58397	126.699	5242.288037226487	884.3540936821477	50.538012854431955	5143.641292372801	490.864642490086	-53.90460525224581	5143.251066900162	99.87037943253952	-132.630683105619	4992.265592929784	22.692289791819555	-44.397508857028704	5168.580464331922	918.445108772354	215.24349915588158	5077.935816462988	515.4268972851576	284.2168173833659	4994.820932602361	89.67137204692814	356.30146996018834	4874.551439884399	6.1863611714477456	233.40775655380307	5138.7228205789925	1033.5588283541927	74.90133514602302	5078.781952798151	1088.8676213611802	22.143976792059476	5013.107973706832	1139.6708345361892	-35.67173797144537	4945.961134122869	1177.9156609702652	-94.59108452241897	4873.127620390682	1219.1279696578615	-156.03799880758206	4805.56487682155	1257.514230441934	-209.65601923567127	4672.816191875538	1341.5271114955142	-234.59819091826222	4907.850443152411	1189.9472676809148	-158.0448528729535	4910.05058176831	1105.3481190161488	-233.47544513550307	4888.288701453628	953.090679521185	-70.71633143883548	4799.9461602777155	838.4770030950278	-19.69806895149344	4801.886137961066	856.7092988364062	-5.723882530131689	4808.172696613912	857.0493090073886	4.241861270949395	4811.856172924417	852.9524710078815	10.347964625549572	4814.3328136388645	845.8298162824207	14.72485931417118	4798.914996152762	843.4579451740025	-7.064919605312717	4797.620065591879	832.3512101857085	7.5606550463283035	4800.242152149066	821.3598075376293	15.78006053519939	4804.472413884245	817.1277838874685	19.35951441334175	4809.7276569953565	815.3796186562305	21.289824298632112	4797.238644639812	831.9027192524028	-9.935524280154821	4795.067864053549	814.8202482193761	2.7776696542464663	4797.716491659423	801.3337033083945	11.31801886587689	4802.718139289047	795.5116156299482	15.430791888206873	4808.418737066266	793.2505806933254	17.442899836104964	4796.046774516355	824.0249641442626	-12.319481603443942	4792.947987282201	801.8847591572876	-2.9446224318551515	4795.043122862885	788.6310030753981	4.040818675585811	4799.754276576029	782.2191763211737	7.764497664302038	4805.060572762379	779.7160507709892	9.541032305852134	4795.03020811609	815.2468294445027	-15.627481754948743	4791.424753003561	789.5333680654328	-9.005361475286723	4792.783315345132	776.6784327366885	-4.167780321068147	4796.0652698111135	770.9171755310609	-1.8174645139285488	4800.676938602678	768.0757052208143	-0.4542382574967121	4887.123707848043	1221.4976909040665	-112.28970517317151	4869.115649630192	1255.7354880051612	-8.149197161671342	4904.859440995809	1045.6666445765056	25.84361012356792	4823.367768174701	861.1312643156081	-11.378441009092725	4810.838193357221	874.4116446793636	-8.645904626672802	4798.003092262032	867.0826629398588	-15.724500641489968	4788.91494859221	857.9997969664771	-21.024938934127775	4781.210423543192	847.0239113981869	-25.760984068843563	4808.900293133125	862.292771490806	-8.802319066413913	4787.323012415762	845.2979306112143	-10.236505555941994	4773.650271039305	828.5239957893932	-16.161990915406893	4767.683395490185	819.9400777123723	-22.137117093611508	4764.453514590544	814.0792948528363	-28.628251064611867	4809.307760521798	851.8270129929489	-9.995409569827128	4788.4819468750275	829.5912358949323	-12.03820891812796	4773.687699257296	809.9555484017543	-18.663019695173016	4766.549083721153	798.9601923558087	-25.948061671594054	4763.044275207955	792.236708188535	-33.087617025675456	4810.127347495981	844.8874773075662	-10.754407198293478	4792.119397785546	818.9967392901113	-13.105571079482807	4779.385909203464	800.5555875257323	-19.039524708199554	4772.585777473997	789.2451892992308	-26.151366378550275	4769.3309567937	782.5895739929675	-32.904553729005926	4811.846036085504	837.2174638119905	-11.960435134129707	4796.31840360759	808.8065431567661	-14.702092301746422	4786.452111731161	792.0826374410195	-19.693100456259554	4781.651802187675	782.8861609266555	-24.996272591727443	4778.860490271651	776.4455743032429	-31.045121444215404
318	1.321	5198.941	914.58397	126.699	5242.154094141625	884.2602260088199	50.49388872885125	5143.511713396272	490.7921907440912	-54.03760158546568	5143.29149887977	99.80726791004231	-132.80635821849816	4992.30768358609	22.620412266201786	-44.57808940074452	5168.7071239623465	918.5346622694743	215.2864894926963	5078.168024275869	515.4964173325918	284.283243974319	4994.957742030799	89.71824579135318	356.1311082359721	4874.703151109759	6.218308179059777	233.23292360886154	5138.761335871719	1033.5826228457404	74.90886808320377	5078.840183496886	1088.9161987789794	22.153296044077887	5013.180293827073	1139.740701121693	-35.66095185029003	4946.031243292904	1177.9919827768638	-94.57406003591083	4873.194839293915	1219.209544495909	-156.01453122862873	4805.6303243436005	1257.6017466598482	-209.62646578228674	4672.879178871486	1341.6156543541267	-234.57986681636038	4907.885831677067	1189.9565099611136	-158.0387824408483	4909.864923298022	1104.9982375728748	-233.45269295493026	4887.634004189728	953.5249770652086	-69.47378393482875	4798.049858372449	839.1390665557514	-17.01166349593599	4800.221474966885	857.3520473647784	-3.3065812301084083	4806.431564057647	857.4740534084349	6.532199030732173	4810.000848995351	853.2233238425863	12.610982195423905	4812.330162641942	845.9706026029347	17.017368327606206	4797.067068895521	844.1107595947085	-4.450833853549085	4795.559712054005	832.8987306974677	10.28018654158605	4797.959567588238	821.7311189781336	18.559845463770245	4802.076951043866	817.3429042564667	22.111602407983312	4807.255818912993	815.4339985629695	23.975037436431982	4795.2288333072	832.5486665286073	-7.159558001719743	4792.7633165822135	815.3598099222598	5.744049421145302	4795.148681715256	801.6802925208848	14.371148456098908	4800.004182000566	795.6694335784655	18.460583810476376	4805.616367502333	793.2323574636342	20.404417732979216	4793.928327730272	824.6697573347815	-9.431283949436992	4790.47201584142	802.4361648207413	0.21326859746272575	4792.316928883773	789.0136613802398	7.295480491076379	4796.876086015104	782.4194563054867	11.007885142223639	4802.094027567086	779.7506688905632	12.725549733689153	4792.7902268560865	815.8853810848973	-12.617347713245298	4788.782914662316	790.0857747483726	-5.670801040782461	4789.910273689934	777.0952514489611	-0.7238987651452398	4793.0664456481	771.2007435980528	1.6335910324066916	4797.591262553932	768.2123952629622	2.9535294665812657	4887.2263792296735	1221.6501136097322	-112.25359689340048	4869.342440224497	1256.2246328557721	-7.987208400619042	4904.957561995504	1045.9915363729722	27.112954626070426	4821.457946812773	861.1202677219209	-8.513678222776537	4809.052390434332	874.6543454532539	-5.831921031423725	4796.081169108633	867.5361151305442	-12.682895195705727	4786.837103185923	858.5784386584894	-17.776010268555172	4778.950298745432	847.6884589674064	-22.297465721661872	4806.91371738287	862.4826855394002	-5.829969799137917	4784.962182325099	845.7092864803385	-6.866999229814649	4770.991729290173	829.0825769846215	-12.452343366118594	4764.898145639181	820.5868082482903	-18.251582251475824	4761.602766989946	814.7967062847408	-24.621133206239623	4807.166180745473	851.9502045558518	-6.901105150290501	4785.89149950472	829.8943271113837	-8.490582051946017	4770.753104306049	810.4097609373044	-14.729347981260926	4763.4523660204895	799.5161803912794	-21.79504662737037	4759.871392281608	792.8678105139305	-28.798096118967166	4807.885712189801	844.9578515942908	-7.584325591271696	4789.388352083542	819.1824106867776	-9.464171471585232	4776.335900328762	800.8629522829193	-15.047146542353111	4769.369296848584	789.6454008593346	-21.939713722919862	4766.03807967956	783.0578891158458	-28.560902138979994	4809.500677302967	837.2207617487927	-8.712558312877423	4793.459773588747	808.8742190126662	-10.97467314470978	4783.310556318663	792.2316187503764	-15.664062004984817	4778.375513332534	783.0950566374681	-20.797344596722944	4775.508867527803	776.7103047846508	-26.723537695520694
